<svg width="15" height="15" viewBox="0 0 15 15" fill="none" xmlns="http://www.w3.org/2000/svg">
<path d="M14.6672 6.55728L13.6471 5.37221C13.4521 5.14719 13.2946 4.72717 13.2946 4.42715V3.15207C13.2946 2.35702 12.642 1.70448 11.847 1.70448H10.5719C10.2794 1.70448 9.85186 1.54697 9.62685 1.35196L8.44177 0.331896C7.92424 -0.110632 7.07669 -0.110632 6.55166 0.331896L5.37408 1.35946C5.14907 1.54697 4.72154 1.70448 4.42902 1.70448H3.13144C2.33639 1.70448 1.68385 2.35702 1.68385 3.15207V4.43465C1.68385 4.72717 1.52634 5.14719 1.33883 5.37221L0.32627 6.56478C-0.108757 7.08231 -0.108757 7.92237 0.32627 8.4399L1.33883 9.63247C1.52634 9.85749 1.68385 10.2775 1.68385 10.57V11.8526C1.68385 12.6477 2.33639 13.3002 3.13144 13.3002H4.42902C4.72154 13.3002 5.14907 13.4577 5.37408 13.6527L6.55916 14.6728C7.07669 15.1153 7.92424 15.1153 8.44928 14.6728L9.63435 13.6527C9.85936 13.4577 10.2794 13.3002 10.5794 13.3002H11.8545C12.6495 13.3002 13.3021 12.6477 13.3021 11.8526V10.5775C13.3021 10.285 13.4596 9.85749 13.6546 9.63247L14.6747 8.4474C15.1097 7.92987 15.1097 7.07481 14.6672 6.55728ZM10.6169 6.08475L6.99418 9.70748C6.88918 9.81248 6.74667 9.87249 6.59666 9.87249C6.44665 9.87249 6.30414 9.81248 6.19913 9.70748L4.38402 7.89237C4.16651 7.67485 4.16651 7.31483 4.38402 7.09732C4.60154 6.8798 4.96156 6.8798 5.17907 7.09732L6.59666 8.5149L9.82186 5.2897C10.0394 5.07219 10.3994 5.07219 10.6169 5.2897C10.8344 5.50722 10.8344 5.86724 10.6169 6.08475Z" fill="#2F80ED"/>
</svg>
