<svg width="95" height="11" viewBox="0 0 95 11" fill="none" xmlns="http://www.w3.org/2000/svg">
<path fill-rule="evenodd" clip-rule="evenodd" d="M6.56494 6.29618C6.04183 6.40005 5.49986 6.4899 5.15563 6.80592C5.66165 6.68073 6.21811 6.62373 6.56494 6.29618ZM39.6003 1.0274C41.727 1.09655 43.8396 0.966554 45.9599 0.945317C49.0001 0.914471 52.0403 0.873059 55.0881 1.02724C56.9604 1.12225 58.8347 1.07318 60.7151 1.20524C65.1003 1.51351 69.4915 1.74114 73.8617 2.20043C77.3694 2.56917 80.882 2.90769 84.3775 3.33924C87.4763 3.72207 90.5164 4.28458 93.5682 4.81233C93.9961 4.88623 94.4176 4.99154 94.7136 5.22875C94.5533 5.48712 94.1824 5.15591 94.0332 5.38075C94.2569 5.56526 95.0364 5.44308 94.8074 5.78817C94.6202 6.07033 94.1209 6.29865 93.4617 6.25987C92.5456 6.20592 91.7487 5.8938 90.8623 5.78229C86.9303 5.28757 83.0189 4.71505 79.0496 4.37549C76.6083 4.16664 74.1685 3.88849 71.72 3.83293C70.3625 3.80187 69.0547 3.49303 67.6999 3.56098C67.3669 3.57759 67.03 3.4549 66.7115 3.67523C66.5933 3.7569 66.0735 3.90293 66.0101 3.48707C65.9967 3.39932 65.759 3.42996 65.6117 3.42431C64.0196 3.36318 62.4072 3.17308 60.8414 3.26356C59.3171 3.35162 57.8108 3.21731 56.2971 3.24966C55.2276 3.2723 54.1671 2.93977 53.0578 3.01386C52.5999 3.04419 52.1285 3.00134 51.6868 3.11755C51.5139 3.10809 51.3411 3.09891 51.1681 3.08945C49.9919 2.97281 48.8198 2.93913 47.659 3.11048C46.4235 2.98603 45.1989 3.00124 43.9858 3.17131C42.6727 3.12798 41.3674 3.05264 40.0891 3.36124C39.5581 3.48936 38.9284 3.43519 38.3485 3.48474C36.3735 3.65333 34.4019 3.83644 32.4265 4.00116C32.061 4.03166 31.6757 4.14858 31.3115 3.96277C30.276 3.89607 29.2904 4.03426 28.3221 4.24192C27.3542 4.47765 26.3122 4.45504 25.3082 4.55067C24.0144 4.67406 22.7598 4.79021 21.5511 5.16914C20.5567 5.48087 19.3813 5.45689 18.3025 5.66117C15.945 6.10819 13.5065 6.47445 11.3537 7.20978C9.01229 8.00954 6.40032 8.36129 4.15767 9.28561C3.58572 9.52146 3.11686 9.85646 2.44559 10.0026C1.76142 10.1512 0.652501 9.93531 0.221135 9.41244C-0.131663 8.98474 -0.0789235 8.53032 0.499788 8.16453C1.49102 7.53839 2.60834 7.02555 3.7698 6.56237C8.76724 4.56971 14.2002 3.27211 19.8167 2.28573C25.3035 1.32197 30.893 0.693144 36.5599 0.336409C39.444 0.154937 42.3429 0.130312 45.2401 0.0658211C48.221 -0.000534688 51.1997 -0.0390387 54.1832 0.0610111C56.84 0.150155 59.4937 0.309384 62.1468 0.460477C65.2542 0.637095 68.3563 0.842167 71.4421 1.13622C78.844 1.84155 86.2286 2.63773 93.4138 4.17273C93.8982 4.27623 94.5154 4.19195 94.865 4.60969C94.3317 4.79966 93.8163 4.69567 93.3109 4.59214C89.6113 3.83305 85.8539 3.27942 82.0679 2.77827C76.4879 2.03945 70.8542 1.6663 65.2377 1.18376C62.5214 0.950361 59.7755 0.92414 57.0463 0.768639C53.4656 0.564152 49.8853 0.562804 46.3087 0.573677C44.1696 0.580191 42.0211 0.634272 39.9059 0.868312C39.7521 0.88541 39.6198 0.915072 39.6072 1.0407C39.2241 0.830502 38.8049 0.953921 38.4089 0.973249C35.3247 1.12419 32.2619 1.37761 29.2065 1.67213C27.2887 1.85712 25.3988 2.13291 23.4902 2.3466C21.4816 2.5713 19.5151 2.9733 17.5721 3.38184C17.0218 3.49746 16.2445 3.40635 15.9287 3.89028C15.0166 3.71625 14.3831 4.10754 13.6821 4.36008C14.4546 4.25112 15.2321 4.15121 15.919 3.87297C16.1208 3.85633 16.3316 3.85864 16.5235 3.82042C22.1955 2.68219 27.9948 1.92305 33.893 1.46033C35.7945 1.311 37.6977 1.17152 39.6003 1.0274Z" fill="#FF2849"/>
</svg>
